<svg width="263" height="109" viewBox="0 0 263 109" fill="none" xmlns="http://www.w3.org/2000/svg">
<g clip-path="url(#clip0_1_151)">
<mask id="mask0_1_151" style="mask-type:luminance" maskUnits="userSpaceOnUse" x="0" y="0" width="263" height="109">
<path d="M263 0H0V109H263V0Z" fill="white"/>
</mask>
<g mask="url(#mask0_1_151)">
<mask id="mask1_1_151" style="mask-type:luminance" maskUnits="userSpaceOnUse" x="0" y="0" width="263" height="109">
<path d="M263 0H0V109H263V0Z" fill="white"/>
</mask>
<g mask="url(#mask1_1_151)">
<mask id="mask2_1_151" style="mask-type:luminance" maskUnits="userSpaceOnUse" x="0" y="0" width="263" height="109">
<path d="M263 0H0.189453V109H263V0Z" fill="white"/>
</mask>
<g mask="url(#mask2_1_151)">
<path d="M224.137 0H225.364V56.2306H224.137V0Z" fill="black"/>
<path d="M219.545 28.6299H220.772V83.7144H219.545V28.6299Z" fill="black"/>
<path d="M206.643 43.992H262.96V45.219H206.643V43.992Z" fill="black"/>
<path d="M179.761 38.7295H234.943V39.9563H179.761V38.7295Z" fill="black"/>
<path d="M206.452 51.6067V88.5633H199.757L182.437 65.8621V88.5633H174.67V52.8467H181.925L198.685 74.8346V56.939C198.685 56.9027 198.685 56.8673 198.685 56.8289C198.685 50.977 206.429 51.6309 206.429 51.6309L206.452 51.6067ZM206.42 51.5481V88.5037H199.727L182.405 65.8026V88.5037H174.642V52.7872H181.897L198.657 74.7762V56.8804C198.657 56.8431 198.657 56.8087 198.657 56.7694C198.657 50.9174 206.401 51.5723 206.401 51.5723L206.42 51.5481ZM165.799 70.6474V70.5467C165.799 60.3936 157.878 52.1837 146.842 52.1837C135.805 52.1837 127.783 60.4994 127.783 70.6474V70.7484C127.783 80.9013 135.703 89.1112 146.74 89.1112C157.776 89.1112 165.802 80.8006 165.802 70.6474H165.799ZM157.572 70.7484C157.572 76.8707 153.177 81.871 146.842 81.871C140.506 81.871 136.009 76.7688 136.009 70.6465V70.5455C136.009 64.4232 140.404 59.4239 146.74 59.4239C153.075 59.4239 157.572 64.5251 157.572 70.6474V70.7484ZM101.419 77.9644V77.8634C101.419 71.6806 97.3584 69.0957 90.1506 67.221C84.0086 65.6492 82.4869 64.8894 82.4869 62.5578V62.4569C82.4869 60.7337 84.0601 59.3655 87.0542 59.3655C90.0485 59.3655 93.1457 60.6832 96.2924 62.8624L100.353 56.9834C96.7491 54.0947 92.3332 52.4733 87.1565 52.4733C79.898 52.4733 74.7211 56.7301 74.7211 63.1681V63.2691C74.7211 70.3136 79.3392 72.289 86.4966 74.1143C92.4343 75.6347 93.6529 76.6476 93.6529 78.6242V78.7251C93.6529 80.8025 91.7239 82.0697 88.5266 82.0697C84.4655 82.0697 81.1156 80.3969 77.9165 77.7615L73.2974 83.2855C77.5607 87.0862 82.992 88.9618 88.3721 88.9618C96.0417 88.963 101.422 85.0098 101.422 77.9653L101.419 77.9644ZM117.152 52.9798C114.934 53.0978 110.791 53.8676 110.791 57.9792C110.791 58.0971 110.791 58.2032 110.784 58.3051V88.4565H118.6V52.9808L117.152 52.9798ZM58.147 57.9136V73.3031C58.147 78.9289 55.2538 81.8175 50.4832 81.8175C45.7127 81.8175 42.8186 78.827 42.8186 73.0497V52.9808H35.0024V73.2496C35.0024 83.6891 40.8391 89.0104 50.3812 89.0104C59.9234 89.0104 65.9643 83.7426 65.9643 72.9993V52.9808H64.5555C62.3203 53.122 58.2227 53.9272 58.147 57.9136ZM27.3105 60.0667V52.9808H0.257324V60.0667H27.3105ZM8.07355 67.6126H0.257324V88.4523H0.339175H1.27288C3.37371 88.3767 7.88155 87.74 8.07355 83.664V74.7215H25.0268V67.6267H8.07355V67.6126Z" fill="black"/>
<path d="M88.3447 89.1677C82.9647 89.1677 77.5324 87.2921 73.27 83.4923L77.8889 77.9684C81.0862 80.6038 84.4361 82.2756 88.4992 82.2756C91.6974 82.2756 93.6255 81.0083 93.6255 78.931V78.8301C93.6255 76.8535 92.4079 75.8396 86.4691 74.3191C79.3128 72.4949 74.6948 70.5193 74.6948 63.4749V63.374C74.6948 56.9378 79.8715 52.6792 87.1289 52.6792C92.3058 52.6792 96.7217 54.3005 100.325 57.1891L96.262 63.0692C93.1153 60.89 90.0191 59.5733 87.025 59.5733C84.0309 59.5733 82.4565 60.9405 82.4565 62.6637V62.7647C82.4565 65.0953 83.9794 65.8561 90.1211 67.4269C97.328 69.3016 101.388 71.8865 101.388 78.0684V78.1691C101.388 85.2146 96.0083 89.1677 88.3447 89.1677Z" fill="black"/>
<path d="M58.1156 58.1243V73.5088C58.1156 79.1337 55.2226 82.0224 50.4521 82.0224C45.6815 82.0224 42.7883 79.0329 42.7883 73.2556V53.1876H34.9722V73.4585C34.9722 83.8969 40.8087 89.2182 50.3509 89.2182C59.8932 89.2182 65.9319 83.9443 65.9319 73.2042V53.1876H64.5244C62.2889 53.329 58.1915 54.133 58.1156 58.1243Z" fill="black"/>
<path d="M146.706 89.321C135.671 89.321 127.75 81.1072 127.75 70.9583V70.8573C127.75 60.7053 135.773 52.3936 146.809 52.3936C157.846 52.3936 165.765 60.6074 165.765 70.7565V70.8573C165.765 81.0053 157.743 89.321 146.706 89.321ZM157.539 70.8573C157.539 64.7361 153.042 59.6337 146.706 59.6337C140.37 59.6337 135.977 64.6331 135.977 70.7554V70.8563C135.977 76.9787 140.473 82.0799 146.809 82.0799C153.145 82.0799 157.539 77.0806 157.539 70.9583V70.8573Z" fill="black"/>
<path d="M117.121 53.1876C114.898 53.3057 110.755 54.0756 110.755 58.186C110.755 58.3039 110.755 58.4109 110.748 58.5119V88.6612H118.564V53.1876H117.121Z" fill="black"/>
<path d="M0.229005 53.1876H27.2811V60.2735H0.229004L0.229005 53.1876Z" fill="black"/>
<path d="M8.04524 67.8185H0.229004V88.6573H0.310854H1.24456C3.34539 88.5815 7.85324 87.9449 8.04524 83.8687V74.9274H24.9974V67.8324H8.04524V67.8185Z" fill="black"/>
<path d="M206.359 51.7791C206.359 51.7791 198.617 51.1263 198.617 56.9762C198.617 57.0146 198.617 57.05 198.617 57.0872V74.986L181.857 52.998H174.601V88.7087H182.368V66.0073L199.689 88.7087H206.382V51.7589L206.359 51.7791Z" fill="black"/>
<path d="M56.243 102.181V108.855H54.3979V102.181H51.8464V100.482H58.7946V102.181H56.243Z" fill="black"/>
<path d="M61.9221 108.855V100.481H68.2479V102.12H63.7552V103.821H67.7083V105.459H63.7552V107.218H68.3076V108.856L61.9221 108.855Z" fill="black"/>
<path d="M75.5923 109C73.1245 109 71.2915 107.097 71.2915 104.692V104.669C71.2915 102.288 73.0882 100.339 75.664 100.339C77.2455 100.339 78.1903 100.864 78.9713 101.63L77.7972 102.982C77.1495 102.396 76.4905 102.037 75.6519 102.037C74.2371 102.037 73.2205 103.209 73.2205 104.645V104.669C73.2205 106.104 74.215 107.301 75.6519 107.301C76.6108 107.301 77.1979 106.918 77.8568 106.32L79.031 107.504C78.1679 108.425 77.21 109 75.5923 109Z" fill="black"/>
<path d="M87.4657 108.855V105.495H84.0632V108.855H82.218V100.481H84.0632V103.794H87.4657V100.482H89.3109V108.856L87.4657 108.855Z" fill="black"/>
<path d="M98.9198 108.855L94.8576 103.532V108.855H93.0386V100.481H94.7402L98.6701 105.637V100.481H100.489V108.855H98.9198Z" fill="black"/>
<path d="M108.288 109C105.701 109 103.842 107.074 103.842 104.692V104.669C103.842 102.288 105.722 100.339 108.31 100.339C110.898 100.339 112.757 102.265 112.757 104.645V104.669C112.757 107.049 110.879 109 108.288 109ZM110.828 104.669C110.828 103.233 109.775 102.037 108.288 102.037C106.802 102.037 105.773 103.209 105.773 104.645V104.669C105.773 106.104 106.827 107.301 108.312 107.301C109.798 107.301 110.828 106.128 110.828 104.692V104.669Z" fill="black"/>
<path d="M116.112 108.855V100.481H117.957V107.179H122.139V108.854L116.112 108.855Z" fill="black"/>
<path d="M128.835 109C126.249 109 124.389 107.074 124.389 104.692V104.669C124.389 102.288 126.27 100.339 128.858 100.339C131.445 100.339 133.304 102.265 133.304 104.645V104.669C133.305 107.049 131.423 109 128.835 109ZM131.376 104.669C131.376 103.233 130.322 102.037 128.835 102.037C127.349 102.037 126.32 103.209 126.32 104.645V104.669C126.32 106.104 127.374 107.301 128.86 107.301C130.345 107.301 131.376 106.128 131.376 104.692V104.669Z" fill="black"/>
<path d="M140.697 109C138.086 109 136.288 107.169 136.288 104.692V104.669C136.288 102.288 138.145 100.339 140.685 100.339C142.194 100.339 143.11 100.742 143.98 101.487L142.818 102.886C142.171 102.349 141.595 102.037 140.625 102.037C139.283 102.037 138.217 103.221 138.217 104.645V104.669C138.217 106.2 139.271 107.325 140.756 107.325C141.427 107.325 142.027 107.157 142.494 106.82V105.624H140.637V104.033H144.275V107.67C143.283 108.53 142.011 109.003 140.697 109Z" fill="black"/>
<path d="M151.612 105.518V108.855H149.767V105.554L146.543 100.482H148.701L150.701 103.844L152.738 100.482H154.836L151.612 105.518Z" fill="black"/>
</g>
</g>
</g>
</g>
<defs>
<clipPath id="clip0_1_151">
<rect width="263" height="109" fill="white"/>
</clipPath>
</defs>
</svg>
